<svg xmlns="http://www.w3.org/2000/svg" xmlns:xlink="http://www.w3.org/1999/xlink" width="2000" zoomAndPan="magnify" viewBox="0 0 1500 1499.999933" height="2000" preserveAspectRatio="xMidYMid meet" version="1.0"><defs><clipPath id="1268bc8ff2"><path d="M 404.628906 334.347656 L 1095 334.347656 L 1095 1165.347656 L 404.628906 1165.347656 Z M 404.628906 334.347656 " clip-rule="nonzero"/></clipPath></defs><rect x="-150" width="1800" fill="#ffffff" y="-149.999993" height="1799.99992" fill-opacity="1"/><rect x="-150" width="1800" fill="#000000" y="-149.999993" height="1799.99992" fill-opacity="1"/><g clip-path="url(#1268bc8ff2)"><path fill="#ffffff" d="M 1064.667969 534.613281 L 434.898438 534.613281 C 434.898438 524.933594 434.792969 515.472656 435.007812 506.125 C 435.113281 505.050781 436.941406 503.757812 438.234375 503.113281 C 483.199219 478.472656 528.226562 453.949219 573.308594 429.542969 C 630.878906 398.257812 688.378906 366.925781 745.804688 335.550781 C 746.386719 335.160156 747.007812 334.863281 747.679688 334.65625 C 748.347656 334.453125 749.03125 334.351562 749.730469 334.351562 C 750.429688 334.351562 751.113281 334.453125 751.785156 334.65625 C 752.453125 334.863281 753.078125 335.160156 753.65625 335.550781 C 856.035156 391.386719 958.492188 447.132812 1061.023438 502.78125 C 1061.632812 503.023438 1062.1875 503.355469 1062.683594 503.785156 C 1063.179688 504.210938 1063.59375 504.710938 1063.925781 505.273438 C 1064.257812 505.839844 1064.484375 506.445312 1064.613281 507.089844 C 1064.738281 507.734375 1064.757812 508.378906 1064.667969 509.027344 C 1064.574219 517.515625 1064.667969 525.914062 1064.667969 534.613281 Z M 629.023438 616.109375 C 629.53125 616.132812 630.035156 616.128906 630.539062 616.101562 C 631.042969 616.074219 631.542969 616.023438 632.042969 615.945312 C 632.539062 615.867188 633.035156 615.761719 633.523438 615.632812 C 634.011719 615.507812 634.492188 615.355469 634.964844 615.175781 C 635.4375 615 635.898438 614.800781 636.351562 614.578125 C 636.804688 614.351562 637.246094 614.105469 637.671875 613.839844 C 638.101562 613.570312 638.511719 613.28125 638.910156 612.972656 C 639.308594 612.660156 639.691406 612.332031 640.058594 611.984375 C 640.421875 611.636719 640.769531 611.269531 641.097656 610.886719 C 641.425781 610.5 641.734375 610.101562 642.019531 609.6875 C 642.308594 609.273438 642.574219 608.84375 642.820312 608.402344 C 643.0625 607.960938 643.285156 607.507812 643.484375 607.042969 C 643.679688 606.582031 643.855469 606.105469 644.007812 605.625 C 644.15625 605.144531 644.285156 604.65625 644.386719 604.160156 C 644.488281 603.667969 644.5625 603.167969 644.613281 602.667969 C 644.664062 602.164062 644.691406 601.660156 644.691406 601.15625 C 644.691406 600.652344 644.664062 600.148438 644.613281 599.644531 C 644.5625 599.144531 644.488281 598.644531 644.386719 598.148438 C 644.285156 597.65625 644.15625 597.167969 644.007812 596.683594 C 643.855469 596.203125 643.679688 595.730469 643.484375 595.265625 C 643.285156 594.800781 643.0625 594.347656 642.820312 593.90625 C 642.574219 593.464844 642.308594 593.039062 642.019531 592.625 C 641.734375 592.207031 641.425781 591.808594 641.097656 591.425781 C 640.769531 591.042969 640.421875 590.675781 640.058594 590.328125 C 639.691406 589.980469 639.308594 589.648438 638.910156 589.339844 C 638.511719 589.03125 638.101562 588.742188 637.671875 588.472656 C 637.246094 588.203125 636.804688 587.957031 636.351562 587.734375 C 635.898438 587.511719 635.4375 587.3125 634.964844 587.132812 C 634.492188 586.957031 634.011719 586.804688 633.523438 586.675781 C 633.035156 586.546875 632.539062 586.445312 632.042969 586.367188 C 631.542969 586.289062 631.042969 586.234375 630.539062 586.207031 C 630.035156 586.179688 629.53125 586.179688 629.023438 586.203125 C 589.441406 586.09375 549.9375 586.128906 510.511719 586.308594 C 507.015625 586.421875 503.820312 587.464844 500.929688 589.4375 C 500.304688 589.867188 499.71875 590.34375 499.171875 590.867188 C 498.621094 591.386719 498.117188 591.953125 497.660156 592.554688 C 497.203125 593.160156 496.792969 593.792969 496.4375 594.464844 C 496.082031 595.132812 495.78125 595.824219 495.535156 596.542969 C 495.289062 597.257812 495.101562 597.992188 494.972656 598.738281 C 494.847656 599.484375 494.777344 600.238281 494.769531 600.996094 C 494.761719 601.753906 494.816406 602.507812 494.929688 603.257812 C 495.042969 604.003906 495.214844 604.742188 495.445312 605.460938 C 495.667969 606.207031 495.945312 606.929688 496.28125 607.628906 C 496.613281 608.328125 497 608.996094 497.4375 609.636719 C 497.878906 610.277344 498.363281 610.878906 498.894531 611.445312 C 499.429688 612.007812 500 612.527344 500.617188 613 C 501.230469 613.476562 501.875 613.898438 502.554688 614.273438 C 503.234375 614.648438 503.941406 614.964844 504.667969 615.230469 C 505.398438 615.492188 506.144531 615.699219 506.90625 615.847656 C 507.667969 615.996094 508.4375 616.082031 509.210938 616.109375 C 514.265625 616.324219 519.4375 616.109375 524.601562 616.109375 L 524.601562 972.183594 C 519.859375 972.183594 515.566406 972.183594 511.253906 972.28125 C 510.738281 972.230469 510.21875 972.207031 509.699219 972.214844 C 509.179688 972.21875 508.664062 972.25 508.148438 972.308594 C 507.628906 972.367188 507.117188 972.453125 506.609375 972.5625 C 506.105469 972.675781 505.601562 972.8125 505.109375 972.972656 C 504.617188 973.136719 504.132812 973.324219 503.660156 973.539062 C 503.1875 973.75 502.726562 973.988281 502.277344 974.25 C 501.828125 974.511719 501.390625 974.792969 500.972656 975.101562 C 500.550781 975.40625 500.148438 975.734375 499.761719 976.082031 C 499.375 976.429688 499.011719 976.792969 498.660156 977.179688 C 498.3125 977.566406 497.988281 977.96875 497.679688 978.386719 C 497.375 978.808594 497.089844 979.242188 496.828125 979.691406 C 496.566406 980.140625 496.328125 980.601562 496.117188 981.074219 C 495.902344 981.546875 495.710938 982.03125 495.550781 982.523438 C 495.386719 983.015625 495.246094 983.515625 495.136719 984.023438 C 495.023438 984.53125 494.9375 985.042969 494.878906 985.558594 C 494.820312 986.074219 494.789062 986.59375 494.78125 987.113281 C 494.777344 987.632812 494.796875 988.148438 494.847656 988.667969 C 494.894531 989.183594 494.96875 989.699219 495.070312 990.207031 C 495.171875 990.71875 495.300781 991.21875 495.453125 991.714844 C 495.605469 992.210938 495.785156 992.699219 495.988281 993.175781 C 496.191406 993.65625 496.421875 994.121094 496.671875 994.574219 C 496.925781 995.03125 497.199219 995.46875 497.496094 995.894531 C 497.796875 996.320312 498.113281 996.730469 498.453125 997.125 C 498.792969 997.515625 499.152344 997.890625 499.53125 998.246094 C 499.910156 998.601562 500.308594 998.9375 500.722656 999.25 C 501.132812 999.566406 501.5625 999.859375 502.007812 1000.128906 C 502.449219 1000.398438 502.90625 1000.644531 503.375 1000.867188 C 503.84375 1001.089844 504.324219 1001.289062 504.8125 1001.460938 C 505.304688 1001.636719 505.800781 1001.78125 506.304688 1001.90625 C 506.8125 1002.027344 507.320312 1002.121094 507.835938 1002.191406 C 508.351562 1002.261719 508.867188 1002.300781 509.386719 1002.316406 C 509.90625 1002.332031 510.425781 1002.324219 510.941406 1002.285156 L 628.59375 1002.285156 C 629.113281 1002.324219 629.632812 1002.339844 630.152344 1002.328125 C 630.671875 1002.316406 631.1875 1002.277344 631.703125 1002.214844 C 632.21875 1002.148438 632.730469 1002.058594 633.234375 1001.9375 C 633.742188 1001.820312 634.242188 1001.675781 634.730469 1001.507812 C 635.222656 1001.335938 635.703125 1001.140625 636.175781 1000.921875 C 636.644531 1000.703125 637.105469 1000.460938 637.550781 1000.191406 C 637.996094 999.925781 638.425781 999.636719 638.84375 999.324219 C 639.257812 999.011719 639.65625 998.679688 640.039062 998.328125 C 640.417969 997.972656 640.78125 997.601562 641.125 997.210938 C 641.46875 996.820312 641.789062 996.414062 642.089844 995.992188 C 642.390625 995.566406 642.667969 995.128906 642.925781 994.675781 C 643.179688 994.222656 643.410156 993.757812 643.617188 993.28125 C 643.824219 992.804688 644.007812 992.320312 644.164062 991.824219 C 644.320312 991.328125 644.453125 990.828125 644.558594 990.316406 C 644.660156 989.808594 644.742188 989.296875 644.792969 988.777344 C 644.84375 988.261719 644.867188 987.742188 644.867188 987.222656 C 644.863281 986.703125 644.835938 986.1875 644.78125 985.667969 C 644.726562 985.152344 644.644531 984.640625 644.535156 984.132812 C 644.425781 983.625 644.292969 983.121094 644.132812 982.628906 C 643.972656 982.132812 643.785156 981.648438 643.574219 981.175781 C 643.363281 980.699219 643.128906 980.234375 642.871094 979.785156 C 642.613281 979.335938 642.332031 978.898438 642.027344 978.476562 C 641.722656 978.054688 641.398438 977.648438 641.054688 977.261719 C 640.707031 976.875 640.34375 976.503906 639.957031 976.15625 C 639.574219 975.804688 639.171875 975.476562 638.753906 975.167969 C 638.335938 974.859375 637.90625 974.570312 637.457031 974.308594 C 637.007812 974.042969 636.550781 973.804688 636.078125 973.585938 C 635.605469 973.371094 635.121094 973.179688 634.628906 973.011719 C 634.136719 972.847656 633.636719 972.707031 633.132812 972.59375 C 632.625 972.476562 632.113281 972.390625 631.597656 972.328125 C 631.082031 972.265625 630.5625 972.230469 630.042969 972.222656 C 629.523438 972.214844 629.003906 972.234375 628.488281 972.28125 C 624.078125 972.183594 619.667969 972.183594 615.257812 972.183594 L 615.257812 616.109375 C 620.097656 616.109375 624.496094 616.25 629.023438 616.109375 Z M 808.515625 616.109375 C 809.023438 616.152344 809.535156 616.164062 810.050781 616.15625 C 810.5625 616.144531 811.074219 616.105469 811.582031 616.042969 C 812.089844 615.980469 812.597656 615.890625 813.09375 615.773438 C 813.59375 615.660156 814.089844 615.519531 814.574219 615.351562 C 815.058594 615.1875 815.535156 614.996094 816 614.78125 C 816.464844 614.566406 816.917969 614.328125 817.359375 614.066406 C 817.800781 613.804688 818.230469 613.523438 818.640625 613.21875 C 819.054688 612.914062 819.449219 612.585938 819.828125 612.242188 C 820.207031 611.894531 820.566406 611.53125 820.910156 611.148438 C 821.25 610.765625 821.570312 610.367188 821.871094 609.953125 C 822.171875 609.535156 822.453125 609.105469 822.707031 608.660156 C 822.964844 608.21875 823.195312 607.761719 823.40625 607.292969 C 823.617188 606.824219 823.800781 606.347656 823.960938 605.859375 C 824.121094 605.375 824.257812 604.878906 824.367188 604.378906 C 824.476562 603.878906 824.5625 603.371094 824.621094 602.863281 C 824.675781 602.351562 824.710938 601.839844 824.714844 601.328125 C 824.71875 600.816406 824.699219 600.304688 824.652344 599.792969 C 824.605469 599.28125 824.53125 598.773438 824.433594 598.273438 C 824.335938 597.769531 824.210938 597.273438 824.058594 596.78125 C 823.910156 596.289062 823.734375 595.808594 823.535156 595.335938 C 823.335938 594.863281 823.113281 594.402344 822.867188 593.953125 C 822.621094 593.503906 822.351562 593.066406 822.058594 592.644531 C 821.765625 592.222656 821.453125 591.816406 821.121094 591.429688 C 820.789062 591.039062 820.4375 590.667969 820.066406 590.3125 C 819.695312 589.957031 819.304688 589.625 818.898438 589.3125 C 818.492188 588.996094 818.074219 588.703125 817.636719 588.433594 C 817.203125 588.164062 816.753906 587.914062 816.292969 587.691406 C 815.832031 587.464844 815.359375 587.265625 814.878906 587.089844 C 814.398438 586.914062 813.90625 586.761719 813.410156 586.636719 C 812.914062 586.507812 812.410156 586.410156 811.902344 586.335938 C 811.394531 586.261719 810.886719 586.210938 810.375 586.1875 C 809.859375 586.167969 809.347656 586.171875 808.835938 586.203125 C 769.476562 586.09375 730.113281 586.128906 690.753906 586.308594 C 687.269531 586.417969 684.042969 587.390625 681.074219 589.222656 C 680.429688 589.652344 679.824219 590.132812 679.257812 590.660156 C 678.6875 591.191406 678.167969 591.761719 677.695312 592.375 C 677.222656 592.992188 676.800781 593.640625 676.433594 594.324219 C 676.066406 595.003906 675.757812 595.714844 675.507812 596.449219 C 675.253906 597.183594 675.066406 597.929688 674.9375 598.695312 C 674.808594 599.460938 674.746094 600.230469 674.742188 601.007812 C 674.742188 601.78125 674.800781 602.554688 674.925781 603.320312 C 675.050781 604.085938 675.234375 604.835938 675.484375 605.570312 C 675.699219 606.308594 675.976562 607.023438 676.304688 607.71875 C 676.636719 608.414062 677.019531 609.082031 677.453125 609.714844 C 677.886719 610.351562 678.367188 610.949219 678.898438 611.507812 C 679.425781 612.070312 679.996094 612.582031 680.605469 613.054688 C 681.214844 613.523438 681.855469 613.945312 682.53125 614.3125 C 683.207031 614.683594 683.90625 614.996094 684.632812 615.257812 C 685.355469 615.515625 686.097656 615.714844 686.851562 615.859375 C 687.609375 616.003906 688.371094 616.085938 689.140625 616.109375 C 694.304688 616.324219 699.367188 616.109375 704.414062 616.109375 L 704.414062 972.3125 C 699.582031 972.3125 694.960938 972.214844 690.335938 972.3125 C 689.832031 972.289062 689.332031 972.292969 688.832031 972.324219 C 688.328125 972.351562 687.828125 972.40625 687.335938 972.488281 C 686.839844 972.566406 686.347656 972.671875 685.863281 972.800781 C 685.375 972.933594 684.898438 973.085938 684.429688 973.265625 C 683.960938 973.441406 683.5 973.644531 683.050781 973.867188 C 682.601562 974.09375 682.164062 974.339844 681.742188 974.609375 C 681.316406 974.878906 680.90625 975.167969 680.511719 975.476562 C 680.117188 975.789062 679.738281 976.117188 679.378906 976.46875 C 679.015625 976.816406 678.671875 977.183594 678.347656 977.566406 C 678.023438 977.949219 677.722656 978.347656 677.4375 978.761719 C 677.152344 979.179688 676.890625 979.605469 676.652344 980.046875 C 676.410156 980.488281 676.191406 980.941406 676 981.402344 C 675.804688 981.867188 675.632812 982.339844 675.484375 982.816406 C 675.339844 983.296875 675.21875 983.785156 675.121094 984.277344 C 675.023438 984.769531 674.949219 985.265625 674.902344 985.765625 C 674.855469 986.269531 674.835938 986.769531 674.839844 987.269531 C 674.832031 987.765625 674.847656 988.261719 674.890625 988.753906 C 674.933594 989.25 675 989.742188 675.09375 990.226562 C 675.183594 990.714844 675.300781 991.195312 675.441406 991.671875 C 675.582031 992.148438 675.75 992.613281 675.9375 993.074219 C 676.125 993.53125 676.335938 993.980469 676.570312 994.417969 C 676.800781 994.855469 677.058594 995.277344 677.332031 995.691406 C 677.609375 996.101562 677.90625 996.5 678.222656 996.878906 C 678.539062 997.261719 678.875 997.625 679.226562 997.972656 C 679.582031 998.320312 679.953125 998.652344 680.339844 998.960938 C 680.726562 999.269531 681.125 999.5625 681.542969 999.832031 C 681.957031 1000.101562 682.386719 1000.347656 682.828125 1000.574219 C 683.269531 1000.800781 683.722656 1001.003906 684.183594 1001.183594 C 684.644531 1001.367188 685.113281 1001.523438 685.59375 1001.65625 C 686.070312 1001.789062 686.554688 1001.898438 687.042969 1001.980469 C 687.53125 1002.066406 688.023438 1002.125 688.515625 1002.160156 C 689.011719 1002.195312 689.507812 1002.203125 690 1002.1875 C 729.777344 1002.292969 769.570312 1002.292969 809.375 1002.1875 C 809.878906 1002.203125 810.386719 1002.195312 810.890625 1002.160156 C 811.394531 1002.125 811.898438 1002.066406 812.394531 1001.976562 C 812.894531 1001.890625 813.386719 1001.78125 813.875 1001.644531 C 814.363281 1001.507812 814.839844 1001.347656 815.3125 1001.164062 C 815.78125 1000.976562 816.242188 1000.769531 816.691406 1000.535156 C 817.144531 1000.304688 817.578125 1000.050781 818.003906 999.773438 C 818.425781 999.496094 818.835938 999.199219 819.230469 998.882812 C 819.621094 998.5625 820 998.226562 820.359375 997.871094 C 820.71875 997.511719 821.058594 997.140625 821.378906 996.746094 C 821.699219 996.355469 822 995.949219 822.277344 995.527344 C 822.558594 995.105469 822.816406 994.671875 823.050781 994.222656 C 823.285156 993.773438 823.5 993.316406 823.6875 992.847656 C 823.875 992.378906 824.039062 991.898438 824.179688 991.414062 C 824.320312 990.925781 824.433594 990.433594 824.523438 989.9375 C 824.613281 989.4375 824.675781 988.9375 824.714844 988.433594 C 824.753906 987.925781 824.765625 987.421875 824.753906 986.917969 C 824.726562 985.925781 824.601562 984.949219 824.378906 983.984375 C 824.160156 983.019531 823.847656 982.085938 823.441406 981.183594 C 823.039062 980.28125 822.550781 979.425781 821.976562 978.621094 C 821.402344 977.8125 820.757812 977.070312 820.035156 976.390625 C 819.316406 975.710938 818.539062 975.109375 817.699219 974.582031 C 816.859375 974.058594 815.980469 973.617188 815.054688 973.265625 C 814.128906 972.914062 813.179688 972.65625 812.203125 972.492188 C 811.226562 972.328125 810.246094 972.261719 809.253906 972.289062 C 804.632812 972.195312 800.125 972.289062 794.964844 972.289062 L 794.964844 616.109375 C 799.683594 616.109375 804.09375 616.25 808.515625 616.109375 Z M 870.242188 972.28125 C 869.75 972.261719 869.253906 972.265625 868.761719 972.296875 C 868.265625 972.324219 867.777344 972.378906 867.289062 972.457031 C 866.800781 972.539062 866.316406 972.640625 865.835938 972.765625 C 865.359375 972.894531 864.886719 973.042969 864.425781 973.21875 C 863.960938 973.390625 863.507812 973.589844 863.066406 973.808594 C 862.621094 974.027344 862.191406 974.265625 861.769531 974.527344 C 861.351562 974.789062 860.945312 975.070312 860.550781 975.375 C 860.160156 975.675781 859.785156 975.996094 859.425781 976.335938 C 859.066406 976.675781 858.722656 977.035156 858.398438 977.40625 C 858.074219 977.78125 857.769531 978.171875 857.484375 978.574219 C 857.199219 978.976562 856.933594 979.394531 856.691406 979.828125 C 856.449219 980.257812 856.226562 980.699219 856.027344 981.152344 C 855.824219 981.601562 855.648438 982.066406 855.496094 982.535156 C 855.339844 983.003906 855.210938 983.480469 855.105469 983.964844 C 854.996094 984.449219 854.914062 984.933594 854.859375 985.425781 C 854.800781 985.917969 854.765625 986.410156 854.757812 986.90625 C 854.738281 987.410156 854.746094 987.914062 854.777344 988.417969 C 854.8125 988.925781 854.871094 989.425781 854.957031 989.921875 C 855.039062 990.421875 855.148438 990.914062 855.285156 991.402344 C 855.421875 991.886719 855.582031 992.367188 855.765625 992.835938 C 855.949219 993.308594 856.160156 993.769531 856.390625 994.214844 C 856.621094 994.664062 856.878906 995.101562 857.152344 995.523438 C 857.429688 995.949219 857.730469 996.355469 858.046875 996.746094 C 858.367188 997.140625 858.703125 997.515625 859.0625 997.871094 C 859.417969 998.230469 859.792969 998.566406 860.1875 998.886719 C 860.578125 999.203125 860.984375 999.503906 861.410156 999.78125 C 861.832031 1000.054688 862.269531 1000.3125 862.71875 1000.542969 C 863.164062 1000.773438 863.625 1000.984375 864.097656 1001.167969 C 864.566406 1001.351562 865.046875 1001.511719 865.53125 1001.648438 C 866.019531 1001.785156 866.511719 1001.894531 867.011719 1001.976562 C 867.507812 1002.0625 868.007812 1002.121094 868.515625 1002.15625 C 869.019531 1002.1875 869.523438 1002.195312 870.027344 1002.175781 C 909.804688 1002.285156 949.59375 1002.285156 989.402344 1002.175781 C 989.90625 1002.195312 990.410156 1002.1875 990.914062 1002.15625 C 991.417969 1002.121094 991.921875 1002.0625 992.417969 1001.976562 C 992.917969 1001.894531 993.410156 1001.785156 993.898438 1001.648438 C 994.382812 1001.511719 994.863281 1001.351562 995.332031 1001.167969 C 995.804688 1000.984375 996.265625 1000.773438 996.714844 1000.542969 C 997.164062 1000.3125 997.597656 1000.054688 998.023438 999.78125 C 998.445312 999.503906 998.851562 999.203125 999.246094 998.886719 C 999.636719 998.566406 1000.011719 998.230469 1000.371094 997.871094 C 1000.726562 997.515625 1001.066406 997.140625 1001.386719 996.746094 C 1001.703125 996.355469 1002.003906 995.949219 1002.277344 995.523438 C 1002.554688 995.101562 1002.8125 994.667969 1003.042969 994.21875 C 1003.277344 993.769531 1003.484375 993.308594 1003.667969 992.839844 C 1003.855469 992.367188 1004.015625 991.890625 1004.148438 991.402344 C 1004.285156 990.914062 1004.398438 990.421875 1004.480469 989.925781 C 1004.566406 989.425781 1004.625 988.925781 1004.660156 988.417969 C 1004.691406 987.914062 1004.699219 987.410156 1004.683594 986.90625 C 1004.664062 985.917969 1004.550781 984.941406 1004.339844 983.976562 C 1004.128906 983.011719 1003.824219 982.078125 1003.425781 981.175781 C 1003.027344 980.269531 1002.546875 979.414062 1001.980469 978.605469 C 1001.410156 977.796875 1000.769531 977.054688 1000.054688 976.375 C 999.339844 975.691406 998.5625 975.089844 997.726562 974.5625 C 996.890625 974.035156 996.011719 973.597656 995.089844 973.246094 C 994.167969 972.894531 993.21875 972.636719 992.246094 972.476562 C 991.269531 972.3125 990.289062 972.246094 989.304688 972.28125 C 984.667969 972.183594 980.164062 972.28125 975 972.28125 L 975 616.109375 C 979.828125 616.109375 984.453125 616.21875 988.980469 616.109375 C 989.484375 616.136719 989.988281 616.136719 990.492188 616.113281 C 990.996094 616.089844 991.5 616.039062 991.996094 615.964844 C 992.496094 615.890625 992.992188 615.789062 993.480469 615.664062 C 993.96875 615.539062 994.449219 615.390625 994.921875 615.21875 C 995.398438 615.042969 995.863281 614.847656 996.316406 614.625 C 996.769531 614.40625 997.210938 614.164062 997.640625 613.898438 C 998.070312 613.632812 998.484375 613.347656 998.886719 613.039062 C 999.285156 612.730469 999.667969 612.40625 1000.035156 612.058594 C 1000.402344 611.714844 1000.753906 611.351562 1001.082031 610.96875 C 1001.414062 610.585938 1001.726562 610.191406 1002.015625 609.777344 C 1002.304688 609.367188 1002.574219 608.941406 1002.824219 608.5 C 1003.070312 608.058594 1003.292969 607.609375 1003.496094 607.144531 C 1003.699219 606.683594 1003.875 606.210938 1004.03125 605.730469 C 1004.183594 605.25 1004.3125 604.765625 1004.417969 604.269531 C 1004.523438 603.777344 1004.601562 603.277344 1004.65625 602.777344 C 1004.710938 602.277344 1004.742188 601.773438 1004.746094 601.269531 C 1004.75 600.761719 1004.726562 600.261719 1004.679688 599.757812 C 1004.632812 599.253906 1004.558594 598.757812 1004.460938 598.261719 C 1004.363281 597.765625 1004.242188 597.277344 1004.09375 596.792969 C 1003.945312 596.3125 1003.777344 595.839844 1003.582031 595.371094 C 1003.386719 594.90625 1003.167969 594.453125 1002.925781 594.007812 C 1002.683594 593.566406 1002.421875 593.136719 1002.136719 592.71875 C 1001.851562 592.300781 1001.546875 591.902344 1001.222656 591.515625 C 1000.898438 591.128906 1000.554688 590.761719 1000.191406 590.410156 C 999.828125 590.058594 999.449219 589.726562 999.054688 589.414062 C 998.660156 589.101562 998.25 588.808594 997.824219 588.539062 C 997.398438 588.265625 996.957031 588.015625 996.507812 587.789062 C 996.058594 587.5625 995.597656 587.359375 995.125 587.179688 C 994.652344 587 994.175781 586.84375 993.6875 586.710938 C 993.199219 586.578125 992.707031 586.472656 992.210938 586.390625 C 991.710938 586.308594 991.210938 586.25 990.707031 586.21875 C 990.203125 586.1875 989.699219 586.183594 989.195312 586.203125 C 949.5 586.09375 909.816406 586.09375 870.144531 586.203125 C 869.640625 586.183594 869.136719 586.191406 868.636719 586.226562 C 868.132812 586.257812 867.632812 586.316406 867.132812 586.398438 C 866.636719 586.484375 866.144531 586.59375 865.65625 586.726562 C 865.171875 586.859375 864.691406 587.015625 864.222656 587.199219 C 863.753906 587.378906 863.292969 587.585938 862.84375 587.8125 C 862.390625 588.042969 861.953125 588.292969 861.53125 588.566406 C 861.105469 588.839844 860.695312 589.132812 860.300781 589.445312 C 859.90625 589.757812 859.527344 590.09375 859.167969 590.445312 C 858.804688 590.796875 858.464844 591.167969 858.140625 591.554688 C 857.816406 591.941406 857.511719 592.34375 857.230469 592.757812 C 856.945312 593.175781 856.683594 593.609375 856.445312 594.050781 C 856.207031 594.496094 855.988281 594.949219 855.796875 595.417969 C 855.601562 595.882812 855.433594 596.355469 855.285156 596.839844 C 855.140625 597.320312 855.019531 597.8125 854.921875 598.304688 C 854.828125 598.800781 854.757812 599.300781 854.710938 599.804688 C 854.664062 600.304688 854.644531 600.808594 854.648438 601.3125 C 854.65625 601.816406 854.683594 602.320312 854.742188 602.820312 C 854.796875 603.324219 854.878906 603.820312 854.984375 604.3125 C 855.089844 604.804688 855.222656 605.292969 855.375 605.773438 C 855.53125 606.253906 855.710938 606.722656 855.914062 607.1875 C 856.117188 607.648438 856.34375 608.097656 856.589844 608.535156 C 856.839844 608.976562 857.109375 609.402344 857.402344 609.8125 C 857.691406 610.226562 858.003906 610.621094 858.335938 611 C 858.667969 611.382812 859.015625 611.742188 859.386719 612.089844 C 859.753906 612.433594 860.136719 612.757812 860.539062 613.066406 C 860.941406 613.371094 861.355469 613.65625 861.785156 613.917969 C 862.214844 614.183594 862.65625 614.425781 863.113281 614.644531 C 863.566406 614.863281 864.03125 615.058594 864.503906 615.230469 C 864.980469 615.402344 865.460938 615.550781 865.949219 615.675781 C 866.4375 615.800781 866.933594 615.898438 867.433594 615.972656 C 867.929688 616.046875 868.433594 616.09375 868.9375 616.117188 C 869.441406 616.140625 869.945312 616.136719 870.449219 616.109375 C 875.070312 616.21875 879.578125 616.109375 884.320312 616.109375 L 884.320312 972.3125 C 879.375 972.3125 874.75 972.214844 870.242188 972.3125 Z M 463.074219 1053.9375 C 462.179688 1054.03125 461.300781 1054.203125 460.433594 1054.453125 C 459.570312 1054.707031 458.734375 1055.035156 457.929688 1055.441406 C 457.125 1055.84375 456.363281 1056.316406 455.644531 1056.859375 C 454.925781 1057.402344 454.261719 1058.007812 453.652344 1058.671875 C 453.042969 1059.335938 452.496094 1060.046875 452.019531 1060.8125 C 451.539062 1061.574219 451.132812 1062.375 450.796875 1063.210938 C 450.464844 1064.046875 450.207031 1064.90625 450.03125 1065.789062 C 449.851562 1066.671875 449.757812 1067.566406 449.742188 1068.464844 C 449.734375 1069.386719 449.8125 1070.300781 449.972656 1071.207031 C 450.136719 1072.109375 450.378906 1072.996094 450.699219 1073.855469 C 451.023438 1074.71875 451.421875 1075.542969 451.898438 1076.332031 C 452.375 1077.121094 452.914062 1077.859375 453.527344 1078.546875 C 454.136719 1079.234375 454.804688 1079.863281 455.527344 1080.429688 C 456.253906 1080.996094 457.023438 1081.492188 457.839844 1081.917969 C 458.65625 1082.34375 459.503906 1082.691406 460.386719 1082.960938 C 461.265625 1083.230469 462.160156 1083.417969 463.074219 1083.523438 C 465.226562 1083.738281 467.378906 1083.628906 469.527344 1083.628906 L 1030.039062 1083.628906 C 1032.191406 1083.628906 1034.34375 1083.738281 1036.492188 1083.523438 C 1037.035156 1083.457031 1037.574219 1083.367188 1038.105469 1083.242188 C 1038.636719 1083.121094 1039.160156 1082.96875 1039.675781 1082.789062 C 1040.191406 1082.609375 1040.695312 1082.402344 1041.191406 1082.167969 C 1041.683594 1081.929688 1042.160156 1081.667969 1042.625 1081.382812 C 1043.089844 1081.09375 1043.535156 1080.78125 1043.964844 1080.441406 C 1044.394531 1080.105469 1044.804688 1079.746094 1045.191406 1079.363281 C 1045.582031 1078.980469 1045.949219 1078.578125 1046.296875 1078.152344 C 1046.640625 1077.730469 1046.960938 1077.289062 1047.257812 1076.832031 C 1047.554688 1076.375 1047.828125 1075.898438 1048.070312 1075.410156 C 1048.316406 1074.925781 1048.53125 1074.421875 1048.722656 1073.910156 C 1048.910156 1073.398438 1049.074219 1072.878906 1049.203125 1072.347656 C 1049.335938 1071.820312 1049.441406 1071.28125 1049.511719 1070.742188 C 1049.585938 1070.199219 1049.628906 1069.65625 1049.644531 1069.109375 C 1049.65625 1068.566406 1049.640625 1068.019531 1049.59375 1067.476562 C 1049.546875 1066.933594 1049.46875 1066.390625 1049.363281 1065.855469 C 1049.257812 1065.320312 1049.121094 1064.792969 1048.957031 1064.273438 C 1046.699219 1056.96875 1041.214844 1053.734375 1031.332031 1053.734375 L 468.238281 1053.734375 C 466.511719 1053.695312 464.792969 1053.761719 463.074219 1053.9375 Z M 1080.371094 1135.25 C 1079.070312 1135.140625 1077.789062 1135.140625 1076.488281 1135.140625 L 423.070312 1135.140625 C 421.789062 1135.140625 420.488281 1135.140625 419.210938 1135.25 C 418.257812 1135.28125 417.320312 1135.402344 416.390625 1135.609375 C 415.464844 1135.820312 414.566406 1136.117188 413.695312 1136.5 C 412.820312 1136.878906 411.996094 1137.339844 411.210938 1137.878906 C 410.425781 1138.417969 409.703125 1139.027344 409.035156 1139.703125 C 408.367188 1140.382812 407.769531 1141.117188 407.242188 1141.90625 C 406.714844 1142.699219 406.265625 1143.53125 405.898438 1144.410156 C 405.527344 1145.285156 405.246094 1146.191406 405.050781 1147.121094 C 404.851562 1148.050781 404.746094 1148.992188 404.730469 1149.941406 C 404.710938 1150.894531 404.785156 1151.835938 404.949219 1152.773438 C 405.109375 1153.710938 405.359375 1154.625 405.695312 1155.515625 C 406.035156 1156.402344 406.453125 1157.253906 406.949219 1158.0625 C 407.449219 1158.875 408.019531 1159.628906 408.664062 1160.328125 C 409.304688 1161.03125 410.007812 1161.664062 410.773438 1162.230469 C 411.535156 1162.796875 412.347656 1163.289062 413.203125 1163.699219 C 414.0625 1164.113281 414.949219 1164.441406 415.867188 1164.683594 C 416.789062 1164.925781 417.722656 1165.082031 418.671875 1165.148438 C 420.382812 1165.253906 422.101562 1165.253906 423.832031 1165.253906 L 1075.640625 1165.253906 C 1077.371094 1165.253906 1079.082031 1165.253906 1080.800781 1165.148438 C 1081.742188 1165.074219 1082.667969 1164.910156 1083.578125 1164.664062 C 1084.488281 1164.414062 1085.363281 1164.082031 1086.210938 1163.667969 C 1087.058594 1163.253906 1087.859375 1162.765625 1088.617188 1162.199219 C 1089.371094 1161.632812 1090.066406 1161.003906 1090.699219 1160.304688 C 1091.335938 1159.609375 1091.902344 1158.859375 1092.394531 1158.054688 C 1092.886719 1157.25 1093.304688 1156.40625 1093.636719 1155.527344 C 1093.972656 1154.644531 1094.222656 1153.738281 1094.382812 1152.808594 C 1094.546875 1151.882812 1094.625 1150.945312 1094.609375 1150 C 1094.597656 1149.058594 1094.496094 1148.125 1094.304688 1147.199219 C 1094.117188 1146.277344 1093.84375 1145.378906 1093.484375 1144.507812 C 1093.125 1143.632812 1092.6875 1142.804688 1092.167969 1142.015625 C 1091.652344 1141.226562 1091.066406 1140.492188 1090.414062 1139.8125 C 1089.757812 1139.132812 1089.046875 1138.519531 1088.277344 1137.976562 C 1087.503906 1137.433594 1086.691406 1136.964844 1085.832031 1136.574219 C 1084.972656 1136.183594 1084.085938 1135.878906 1083.167969 1135.65625 C 1082.253906 1135.433594 1081.324219 1135.296875 1080.382812 1135.25 Z M 1080.371094 1135.25 " fill-opacity="1" fill-rule="nonzero"/></g></svg>